<?xml version="1.0" encoding="utf-8"?>
<!-- Generator: Adobe Adobe Illustrator 24.2.0, SVG Export Plug-In . SVG Version: 6.00 Build 0)  -->
<svg version="1.1" xmlns="http://www.w3.org/2000/svg" xmlns:xlink="http://www.w3.org/1999/xlink" x="0px" y="0px" width="1000px"
	 height="1000px" viewBox="0 0 1000 1000" style="enable-background:new 0 0 1000 1000;" xml:space="preserve">
<style type="text/css">
	.st0{fill:none;stroke:#F5B3CD;stroke-width:11;stroke-miterlimit:10;}
	.st1{clip-path:url(#SVGID_2_);}
	.st2{clip-path:url(#SVGID_4_);}
	.st3{fill:#030BA3;stroke:#030BA3;stroke-width:11;stroke-miterlimit:10;}
	.st4{fill:#FFFFFF;stroke:#FFFFFF;stroke-width:11;stroke-miterlimit:10;}
	.st5{fill:#030BA3;stroke:#FFDB12;stroke-width:11;stroke-miterlimit:10;}
</style>
<g id="Layer_1">
	<ellipse class="st0" cx="486.64" cy="637.5" rx="271" ry="198"/>
	<path class="st0" d="M363.69,727.07c-9.01,45.01,260.13,36.37,255.81,0c-0.09-0.77-2.18-2.18-2.18-2.18"/>
	<g>
		<g>
			<defs>
				<rect id="SVGID_1_" x="320.51" y="544.19" width="93" height="90"/>
			</defs>
			<clipPath id="SVGID_2_">
				<use xlink:href="#SVGID_1_"  style="overflow:visible;"/>
			</clipPath>
			<g class="st1">
				<ellipse class="st0" cx="367.01" cy="588.69" rx="41" ry="39"/>
				<ellipse class="st0" cx="367.01" cy="602.69" rx="25" ry="26"/>
			</g>
		</g>
		<g>
			<defs>
				<rect id="SVGID_3_" x="569.51" y="544.19" width="93" height="90"/>
			</defs>
			<clipPath id="SVGID_4_">
				<use xlink:href="#SVGID_3_"  style="overflow:visible;"/>
			</clipPath>
			<g class="st2">
				<ellipse class="st0" cx="616.01" cy="588.69" rx="41" ry="39"/>
				<ellipse class="st0" cx="616.01" cy="602.69" rx="25" ry="26"/>
			</g>
		</g>
	</g>
</g>
<g id="Layer_2">
	<path class="st0" d="M211.27,621.29c-18.41-11.65-38.9-23.79-60.48-20.75c-15.56,2.19-29.8,12.2-45.49,11.35
		c-20.29-1.1-34.89-19.59-44.76-37.35c-3.62-6.52-7.1-13.3-12.48-18.46c-5.38-5.16-13.21-8.49-20.37-6.42
		c-10.98,3.17-15.11,16.71-14.9,28.13c0.44,23.04,11.81,45.64,30.04,59.73c18.24,14.09,42.97,19.38,65.38,13.99
		c16.25-3.91,32.28-13.15,48.62-9.64c25.88,5.55,38.28,40.05,64.38,44.64c0.97,0.24,1.94,0.48,2.94,0.6"/>
	<path class="st0" d="M235.78,558.93c-5.06-21.72-26.98-38.2-49.25-37.01c-12.31,0.65-24.75,6.01-36.59,2.57
		c-9.5-2.76-16.49-10.62-22.93-18.12c-11.16-12.99-22.32-25.99-33.47-38.98c-8.09-9.42-16.28-19.01-21.37-30.33
		c-5.09-11.32-6.72-24.83-1.43-36.06c5.28-11.23,18.69-18.95,30.53-15.22c9.71,3.06,15.92,12.37,20.66,21.39
		c6.74,12.83,12.17,26.47,20.69,38.19c8.53,11.72,19,33.63,33.45,34.8c14.42,1.16,41.72-30.3,102.13,30.11c0.17,0.17,0,0.48,0,0.73
		C278.18,510.5,278.18,510.01,235.78,558.93z"/>
	<path class="st0" d="M247.35,731.21c-10.01-1.35-19.33,5.19-26.49,12.32c-7.15,7.13-13.71,15.45-23.03,19.34
		c-15.18,6.34-32.16-0.94-48.3-4.14c-38.26-7.58-80.32,10.89-100.63,44.19c-2.87,4.7-5.4,10.19-4.12,15.55
		c2.17,9.09,14.25,12.28,23.09,9.24c8.84-3.04,15.6-10.08,23.28-15.39c23.34-16.14,54.08-15.74,82.29-12.66
		c16.97,1.85,35.69,4.04,49.7-5.71c8.49-5.91,31.75-22.44,38.52-30.28C268.43,755.84,269.21,759.05,247.35,731.21"/>
	<path class="st0" d="M748.79,580.42c6.79-14.63,15.51-30.93,31.19-34.73c16.16-3.91,31.63,7.32,45.08,17.1
		c21.7,15.77,47.16,29.92,73.82,26.94c17.84-1.99,34.53-11.58,52.48-11.29c14.38,0.24,29.31,8.2,34.37,21.66
		c5.06,13.47-3.33,31.32-17.59,33.18c-8.84,1.16-17.35-3.44-26.19-4.55c-12.36-1.55-24.52,3.77-36.95,4.47
		c-18.73,1.05-36.28-8.32-52.61-17.56c-16.32-9.24-33.62-18.9-52.37-18.53c-18.75,0.38-38.57,15.27-39.53,34.74
		C759.28,631.38,758.07,630.9,748.79,580.42z"/>
	<path class="st0" d="M755.59,693.89c8.4-12.72,23.68-20.56,38.91-19.96c15.23,0.6,29.85,9.62,37.23,22.95
		c9.27,16.76,7.82,39.38,21.8,52.47c9.05,8.47,22.28,10.51,34.66,11.16c12.38,0.66,25.26,0.43,36.5,5.68
		c11.23,5.25,20.14,18.15,16.09,29.86c-3.06,8.85-12.57,14.17-21.89,15.1c-9.32,0.93-18.59-1.68-27.59-4.26
		c-18-5.17-36.25-10.44-52.2-20.27c-15.94-9.82-29.57-24.94-33.31-43.29c-1.03-5.05-1.38-10.45-4.24-14.74
		c-7.55-11.31-25.15-6.72-36.81,0.29c-11.66,7.01-26.24,15.39-38.42,9.07C726.09,737.97,726.29,738.27,755.59,693.89z"/>
	<path class="st0" d="M715.24,526.88c2.83-25.53,32.07-40.89,57.69-39.11s48.61,15.45,71.77,26.56
		c23.16,11.11,49.82,20.02,74.15,11.8c29.37-9.92,46.3-46.7,34.72-75.46c-3.9-9.7-12.99-19.29-23.2-17.06
		c-15.19,3.31-14.45,25.93-24.91,37.43c-6.48,7.12-17.09,9.24-26.61,7.8s-18.27-5.91-26.85-10.28
		c-32.48-16.55-66.49-32.85-102.92-34.23c-34.75-1.31-69.08,17.19-83.92,48.31c-1.06,2.23-4.23,2.54-5.58,0.47
		C659.51,483.01,715.24,526.88,715.24,526.88z"/>
</g>
<g id="Layer_3">
	<path class="st3" d="M335.49,457.55c25.49-72.08-2.94-149.97-76.63-210c63,9.97,127.13,20.22,181.95,40.71
		c89.24,33.36,136.71,74.98,161.54,134.67c0.58,1.4,0.58,2.98-0.03,4.37"/>
	<circle class="st4" cx="254.65" cy="233.31" r="30.5"/>
	<polygon class="st5" points="378.96,385.01 382.4,391.18 389,389.79 384.52,394.99 387.96,401.16 381.75,398.21 377.28,403.42 
		377.92,396.39 371.72,393.44 378.32,392.04 	"/>
	<path class="st4" d="M321.98,459.05c0,0-18.27,4.22-20.71,12.89c-2.45,8.67,1.36,18.34,8.07,24.35s24.87,9.21,24.87,9.21
		s-0.04,0.17-0.01,0.31c111.43-11.3,198.05-20.61,297.21-30.66c0.24-0.02,0.48,0-0.02-2.19c9.76-1.7,16.85-11.86,16.29-21.75
		c-0.56-9.89-7.83-18.73-17-22.48c-5.45-2.23-14.62-1.43-21.18-0.41c-8.21,1.28-16.43,2.56-24.71,3.27
		C512.98,437.72,321.98,459.05,321.98,459.05z"/>
	<polygon class="st5" points="423.07,315.59 425.77,319.55 430.15,318.21 427.44,322 430.13,325.97 425.76,324.35 423.04,328.14 
		423.05,323.35 418.68,321.73 423.06,320.38 	"/>
	<polygon class="st5" points="512.74,377.91 515.24,382.92 520.52,382.06 516.78,386.02 519.28,391.03 514.47,388.47 510.74,392.43 
		511.5,386.88 506.7,384.32 511.98,383.46 	"/>
</g>
</svg>
